<svg width="96" height="96" viewBox="0 0 96 96" fill="none" xmlns="http://www.w3.org/2000/svg">
<path d="M30 52C21 52 20 41 29 39C29 28 46 27 49 36C54 28 68 31 65 41C73 41 73 52 64 52H30Z" stroke="#45598C" stroke-width="2.6" stroke-linecap="round" stroke-linejoin="round"/>
<path d="M35 60C32 64 32 68 35 68C38 68 38 64 35 60Z" stroke="#45598C" stroke-width="2.6" stroke-linecap="round" stroke-linejoin="round"/>
<path d="M47 63C44 67 44 71 47 71C50 71 50 67 47 63Z" stroke="#45598C" stroke-width="2.6" stroke-linecap="round" stroke-linejoin="round"/>
<path d="M59 60C56 64 56 68 59 68C62 68 62 64 59 60Z" stroke="#45598C" stroke-width="2.6" stroke-linecap="round" stroke-linejoin="round"/>
</svg>
