<svg width="96" height="96" viewBox="0 0 96 96" fill="none" xmlns="http://www.w3.org/2000/svg">
<path d="M20 84C42 80 50 62 47 47C44 33 53 24 66 23" stroke="#45598C" stroke-width="2.6" stroke-linecap="round" stroke-linejoin="round"/>
<path d="M43 66C38 68.8666 34 67.8666 31 63C36 60.1333 40 61.1333 43 66Z" stroke="#45598C" stroke-width="2.6" stroke-linecap="round" stroke-linejoin="round"/>
<path d="M46 52.0001C50.6667 55.2667 54.6667 54.6001 58 50.0001C53.3333 46.7334 49.3333 47.4001 46 52.0001Z" stroke="#45598C" stroke-width="2.6" stroke-linecap="round" stroke-linejoin="round"/>
<path d="M68 16.0001C70.6667 14.0667 71.8333 14.7334 71.5 18.0001C74.5 19.3334 74.5 20.6667 71.5 22.0001C71.8333 25.2667 70.6667 25.9334 68 24.0001C65.3333 25.9334 64.1667 25.2667 64.5 22.0001C61.5 20.6667 61.5 19.3334 64.5 18.0001C64.1667 14.7334 65.3333 14.0667 68 16.0001Z" stroke="#45598C" stroke-width="2.6" stroke-linecap="round" stroke-linejoin="round"/>
<path d="M68 21.7999C68.9941 21.7999 69.8 20.9941 69.8 20C69.8 19.0058 68.9941 18.2 68 18.2C67.0059 18.2 66.2 19.0058 66.2 20C66.2 20.9941 67.0059 21.7999 68 21.7999Z" stroke="#45598C" stroke-width="2.6" stroke-linecap="round" stroke-linejoin="round"/>
</svg>
